<svg width="358" height="283" viewBox="0 0 358 283"
    xmlns="http://www.w3.org/2000/svg">
    <path
        d="M351.745 0H90.8125C89.1232 0 87.5251 0.557828 86.3837 1.52473L4.06335 69.7286C1.68917 71.6995 1.68917 74.8606 4.06335 76.8316L80.7678 140.387C83.5073 142.655 88.2557 141.093 88.2557 137.895V87.6163C88.2557 84.8271 91.0408 82.5586 94.4651 82.5586H351.79C355.215 82.5586 358 80.2901 358 77.501V5.05764C358 2.2685 355.215 0 351.79 0H351.745Z"
        fill="#F29600" />
    <path
        d="M88.2102 199.963H6.20941C2.7851 199.963 0 202.232 0 205.021V277.427C0 280.216 2.7851 282.485 6.20941 282.485H268.785C270.475 282.485 272.073 281.927 273.214 280.96L355.534 212.756C357.909 210.785 357.909 207.624 355.534 205.653L278.83 142.098C276.091 139.829 271.342 141.391 271.342 144.589V194.868C271.342 197.657 268.557 199.926 265.133 199.926H88.2102V199.963Z"
        fill="#F29600" />
</svg>
    