<svg width="253" height="27" viewBox="0 0 253 27" fill="none" xmlns="http://www.w3.org/2000/svg">
    <g clip-path="url(#clip0_304_548)">
        <path
            d="M24.68 0.339996H6.37001C6.25001 0.339996 6.14001 0.389996 6.06001 0.469996L0.290006 6.35C0.120006 6.52 0.120006 6.79 0.290006 6.96L5.67001 12.43C5.86001 12.63 6.19001 12.49 6.19001 12.22V7.89C6.19001 7.65 6.39001 7.45 6.63001 7.45H24.68C24.92 7.45 25.12 7.25 25.12 7.01V0.779996C25.12 0.539996 24.92 0.339996 24.68 0.339996Z"
            fill="#F29600" />
        <path
            d="M6.19 17.56H0.44C0.2 17.56 0 17.76 0 18V24.24C0 24.48 0.2 24.68 0.44 24.68H18.86C18.98 24.68 19.09 24.63 19.17 24.55L24.95 18.67C25.12 18.5 25.12 18.23 24.95 18.06L19.57 12.59C19.38 12.39 19.05 12.53 19.05 12.8V17.13C19.05 17.37 18.85 17.57 18.61 17.57H6.19V17.56Z"
            fill="#F29600" />
        <path
            d="M37.04 20.78C36 20.26 35.18 19.52 34.58 18.56C33.98 17.6 33.65 16.49 33.6 15.21H36.92C37.01 16.24 37.38 17.05 38.04 17.65C38.7 18.25 39.57 18.55 40.65 18.55C41.66 18.55 42.47 18.35 43.07 17.94C43.67 17.53 43.97 16.93 43.97 16.15C43.97 15.63 43.8 15.2 43.47 14.87C43.14 14.54 42.72 14.28 42.2 14.1C41.69 13.92 40.98 13.71 40.1 13.49C38.85 13.18 37.82 12.85 37.03 12.51C36.24 12.17 35.56 11.63 34.99 10.9C34.42 10.17 34.14 9.18 34.14 7.95C34.14 6.96 34.41 6.07 34.94 5.3C35.47 4.52 36.22 3.92 37.17 3.5C38.13 3.07 39.22 2.86 40.44 2.86C41.66 2.86 42.84 3.09 43.82 3.55C44.8 4.01 45.58 4.67 46.15 5.52C46.72 6.37 47.03 7.37 47.08 8.5H43.79C43.7 7.7 43.36 7.05 42.77 6.57C42.18 6.08 41.4 5.84 40.44 5.84C39.53 5.84 38.82 6.03 38.3 6.41C37.78 6.79 37.52 7.31 37.52 7.95C37.52 8.49 37.69 8.93 38.03 9.26C38.37 9.59 38.8 9.85 39.31 10.03C39.82 10.21 40.54 10.41 41.47 10.62C42.74 10.92 43.77 11.23 44.57 11.55C45.36 11.87 46.05 12.4 46.62 13.13C47.19 13.86 47.48 14.86 47.48 16.11C47.48 17.23 47.19 18.19 46.62 19.01C46.04 19.83 45.24 20.46 44.22 20.9C43.19 21.34 42.01 21.57 40.67 21.57C39.33 21.57 38.09 21.31 37.05 20.79L37.04 20.78Z"
            fill="#FFFFFF" />
        <path
            d="M54.66 8.18H58.32V10.87H54.66V16.62C54.66 17.28 54.83 17.78 55.16 18.12C55.49 18.46 55.96 18.63 56.57 18.63H58.32V21.35H56.2C55.24 21.35 54.4 21.17 53.69 20.8C52.98 20.43 52.42 19.91 52.03 19.22C51.64 18.53 51.44 17.71 51.44 16.75V10.87H48.85V8.18H51.44V4.21H54.66V8.18Z"
            fill="#FFFFFF" />
        <path
            d="M68.65 8.58C69.51 8.99 70.18 9.56 70.66 10.3C71.14 11.04 71.38 11.9 71.38 12.87V21.34H68.22V19.38C67.94 20.04 67.45 20.57 66.74 20.96C66.03 21.35 65.21 21.55 64.27 21.55C63.42 21.55 62.65 21.38 61.98 21.04C61.31 20.7 60.79 20.23 60.42 19.63C60.05 19.03 59.87 18.35 59.87 17.6C59.87 16.76 60.07 16.03 60.48 15.4C60.89 14.77 61.47 14.29 62.22 13.95C62.97 13.61 63.83 13.44 64.81 13.44H67.24C67.55 13.44 67.79 13.36 67.96 13.21C68.13 13.05 68.21 12.84 68.21 12.56C68.21 11.92 67.97 11.39 67.49 10.98C67.01 10.57 66.35 10.37 65.52 10.37C64.98 10.37 64.5 10.47 64.08 10.68C63.66 10.89 63.34 11.16 63.11 11.5C62.88 11.84 62.76 12.21 62.74 12.61H59.86C59.91 11.74 60.18 10.95 60.67 10.24C61.16 9.53 61.83 8.98 62.7 8.57C63.57 8.16 64.55 7.96 65.67 7.96C66.79 7.96 67.77 8.17 68.64 8.57L68.65 8.58ZM66.74 18.75C67.22 18.46 67.59 18.06 67.84 17.55C68.09 17.04 68.22 16.45 68.22 15.79V15.58H65.27C64.59 15.58 64.04 15.75 63.62 16.1C63.2 16.45 62.99 16.91 62.99 17.49C62.99 18 63.18 18.4 63.55 18.72C63.92 19.03 64.42 19.19 65.03 19.19C65.69 19.19 66.26 19.05 66.74 18.76V18.75Z"
            fill="#FFFFFF" />
        <path d="M77.68 2.53V21.35H74.49V2.53H77.68Z" fill="#FFFFFF" />
        <path
            d="M93.2 16.96C93.04 17.88 92.68 18.69 92.1 19.39C91.52 20.09 90.8 20.62 89.92 21C89.04 21.37 88.07 21.56 87.01 21.56C85.63 21.56 84.44 21.24 83.42 20.59C82.4 19.95 81.63 19.1 81.09 18.05C80.56 17 80.29 15.89 80.29 14.7C80.29 13.51 80.53 12.39 81.02 11.37C81.51 10.35 82.24 9.53 83.22 8.9C84.2 8.27 85.37 7.96 86.75 7.96C88.13 7.96 89.32 8.26 90.29 8.86C91.26 9.46 91.98 10.25 92.45 11.21C92.92 12.17 93.16 13.21 93.16 14.31C93.16 14.69 93.14 15.06 93.11 15.41H83.39C83.51 16.47 83.9 17.32 84.54 17.95C85.18 18.58 86.01 18.89 87.02 18.89C87.84 18.89 88.51 18.72 89.03 18.39C89.55 18.06 89.9 17.58 90.08 16.95H93.22L93.2 16.96ZM84.55 11.1C83.99 11.59 83.63 12.32 83.45 13.3H89.93C89.88 12.74 89.72 12.23 89.46 11.79C89.2 11.35 88.84 11 88.38 10.74C87.92 10.49 87.37 10.36 86.75 10.36C85.84 10.36 85.11 10.6 84.55 11.09V11.1Z"
            fill="#FFFFFF" />
        <path
            d="M98.84 8.18V10.22C99.21 9.51 99.75 8.95 100.46 8.56C101.17 8.17 102 7.97 102.94 7.97C103.88 7.97 104.77 8.19 105.51 8.64C106.25 9.08 106.83 9.7 107.24 10.48C107.65 11.26 107.85 12.17 107.85 13.2V21.35H104.63V13.87C104.63 13.28 104.52 12.75 104.29 12.29C104.06 11.83 103.74 11.47 103.32 11.21C102.9 10.95 102.42 10.82 101.88 10.82C101.29 10.82 100.76 10.96 100.3 11.25C99.84 11.54 99.48 11.93 99.22 12.44C98.96 12.95 98.83 13.52 98.83 14.16V21.35H95.62V8.18H98.83H98.84Z"
            fill="#FFFFFF" />
        <path
            d="M125.05 21.35H121.63L121.19 16.85C121.12 16.15 120.86 15.58 120.42 15.14C119.98 14.7 119.41 14.47 118.73 14.47H114.78V21.34H111.3V3.06H118.8C120.05 3.06 121.14 3.3 122.05 3.78C122.96 4.26 123.66 4.92 124.14 5.77C124.62 6.62 124.86 7.6 124.86 8.71C124.86 9.62 124.65 10.4 124.22 11.06C123.79 11.72 123.19 12.25 122.4 12.65C123.03 13.05 123.53 13.58 123.92 14.23C124.3 14.88 124.53 15.63 124.6 16.47L125.04 21.36L125.05 21.35ZM114.78 11.5H118.65C119.61 11.5 120.33 11.23 120.81 10.7C121.29 10.17 121.53 9.5 121.53 8.7C121.53 7.9 121.29 7.24 120.81 6.73C120.33 6.22 119.61 5.96 118.65 5.96H114.78V11.5Z"
            fill="#FFFFFF" />
        <path d="M131.86 6.11H128.41V2.53H131.86V6.11ZM131.76 8.18V21.35H128.55V8.18H131.76Z"
            fill="#FFFFFF" />
        <path
            d="M138.08 8.18V22.29C138.08 23.68 137.71 24.76 136.98 25.53C136.25 26.3 135.16 26.68 133.71 26.68H132.3V24.12H133.24C133.85 24.12 134.28 23.95 134.52 23.6C134.76 23.25 134.89 22.71 134.89 21.98V8.18H138.08ZM138.24 6.11H134.79V2.53H138.24V6.11Z"
            fill="#FFFFFF" />
        <path
            d="M144.6 8.18V9.83C145 9.25 145.55 8.8 146.25 8.47C146.95 8.14 147.72 7.97 148.58 7.97C149.82 7.97 150.9 8.25 151.82 8.82C152.74 9.39 153.45 10.18 153.95 11.21C154.45 12.24 154.69 13.42 154.69 14.76C154.69 16.1 154.43 17.29 153.91 18.31C153.39 19.34 152.65 20.14 151.69 20.7C150.73 21.27 149.62 21.55 148.34 21.55C147.54 21.55 146.81 21.4 146.14 21.11C145.48 20.81 144.96 20.41 144.6 19.91V26.68H141.41V8.18H144.6ZM149.81 18.3C150.34 17.97 150.75 17.5 151.05 16.89C151.35 16.28 151.49 15.57 151.49 14.77C151.49 13.97 151.34 13.26 151.05 12.65C150.75 12.04 150.34 11.57 149.81 11.24C149.28 10.91 148.66 10.74 147.97 10.74C147.28 10.74 146.63 10.91 146.09 11.24C145.55 11.57 145.13 12.04 144.84 12.65C144.54 13.26 144.4 13.97 144.4 14.77C144.4 15.57 144.55 16.28 144.84 16.89C145.14 17.5 145.55 17.97 146.09 18.3C146.63 18.63 147.26 18.8 147.97 18.8C148.68 18.8 149.28 18.63 149.81 18.3Z"
            fill="#FFFFFF" />
        <path d="M160.49 2.53V21.35H157.3V2.53H160.49Z" fill="#FFFFFF" />
        <path
            d="M172.02 8.58C172.88 8.99 173.55 9.56 174.03 10.3C174.51 11.04 174.75 11.9 174.75 12.87V21.34H171.59V19.38C171.31 20.04 170.82 20.57 170.11 20.96C169.4 21.35 168.58 21.55 167.64 21.55C166.79 21.55 166.02 21.38 165.35 21.04C164.68 20.7 164.16 20.23 163.79 19.63C163.42 19.03 163.24 18.35 163.24 17.6C163.24 16.76 163.44 16.03 163.85 15.4C164.26 14.77 164.84 14.29 165.59 13.95C166.34 13.61 167.2 13.44 168.18 13.44H170.61C170.92 13.44 171.16 13.36 171.33 13.21C171.5 13.05 171.58 12.84 171.58 12.56C171.58 11.92 171.34 11.39 170.86 10.98C170.38 10.57 169.72 10.37 168.89 10.37C168.35 10.37 167.87 10.47 167.45 10.68C167.03 10.89 166.71 11.16 166.48 11.5C166.25 11.84 166.13 12.21 166.11 12.61H163.23C163.28 11.74 163.55 10.95 164.04 10.24C164.53 9.53 165.2 8.98 166.07 8.57C166.94 8.16 167.92 7.96 169.04 7.96C170.16 7.96 171.14 8.17 172.01 8.57L172.02 8.58ZM170.11 18.75C170.59 18.46 170.96 18.06 171.21 17.55C171.46 17.04 171.59 16.45 171.59 15.79V15.58H168.64C167.96 15.58 167.41 15.75 166.99 16.1C166.57 16.45 166.36 16.91 166.36 17.49C166.36 18 166.55 18.4 166.92 18.72C167.29 19.03 167.79 19.19 168.4 19.19C169.06 19.19 169.63 19.05 170.11 18.76V18.75Z"
            fill="#FFFFFF" />
        <path
            d="M182.28 8.18H185.94V10.87H182.28V16.62C182.28 17.28 182.45 17.78 182.78 18.12C183.11 18.46 183.58 18.63 184.19 18.63H185.94V21.35H183.82C182.86 21.35 182.02 21.17 181.31 20.8C180.6 20.43 180.04 19.91 179.65 19.22C179.26 18.53 179.06 17.71 179.06 16.75V10.87H176.47V8.18H179.06V4.21H182.28V8.18Z"
            fill="#FFFFFF" />
        <path
            d="M200.17 16.96C200.01 17.88 199.65 18.69 199.07 19.39C198.49 20.09 197.77 20.62 196.89 21C196.01 21.37 195.04 21.56 193.98 21.56C192.6 21.56 191.41 21.24 190.39 20.59C189.37 19.95 188.6 19.1 188.06 18.05C187.53 17 187.26 15.89 187.26 14.7C187.26 13.51 187.5 12.39 187.99 11.37C188.48 10.35 189.21 9.53 190.19 8.9C191.17 8.27 192.34 7.96 193.72 7.96C195.1 7.96 196.29 8.26 197.26 8.86C198.23 9.46 198.95 10.25 199.42 11.21C199.89 12.17 200.13 13.21 200.13 14.31C200.13 14.69 200.11 15.06 200.08 15.41H190.36C190.48 16.47 190.87 17.32 191.51 17.95C192.15 18.58 192.98 18.89 193.99 18.89C194.81 18.89 195.48 18.72 196 18.39C196.52 18.06 196.87 17.58 197.05 16.95H200.19L200.17 16.96ZM191.52 11.1C190.96 11.59 190.6 12.32 190.42 13.3H196.9C196.85 12.74 196.69 12.23 196.43 11.79C196.17 11.35 195.81 11 195.35 10.74C194.89 10.49 194.34 10.36 193.72 10.36C192.81 10.36 192.08 10.6 191.52 11.09V11.1Z"
            fill="#FFFFFF" />
        <path
            d="M205.81 8.18V10.22C206.18 9.51 206.72 8.95 207.43 8.56C208.14 8.17 208.97 7.97 209.91 7.97C210.85 7.97 211.74 8.19 212.48 8.64C213.22 9.08 213.8 9.7 214.21 10.48C214.62 11.26 214.82 12.17 214.82 13.2V21.35H211.6V13.87C211.6 13.28 211.49 12.75 211.26 12.29C211.03 11.83 210.71 11.47 210.29 11.21C209.87 10.95 209.39 10.82 208.85 10.82C208.26 10.82 207.73 10.96 207.27 11.25C206.81 11.54 206.45 11.93 206.19 12.44C205.93 12.95 205.8 13.52 205.8 14.16V21.35H202.59V8.18H205.8H205.81Z"
            fill="#FFFFFF" />
        <path d="M221.46 21.35H217.96V17.98H221.46V21.35Z" fill="#FFFFFF" />
        <path
            d="M229.56 21.06C228.88 20.73 228.35 20.28 227.97 19.7V21.35H224.78V2.53H227.97V9.77C228.35 9.21 228.88 8.77 229.56 8.45C230.24 8.13 231 7.97 231.83 7.97C233.1 7.97 234.21 8.25 235.15 8.82C236.09 9.39 236.81 10.18 237.31 11.21C237.81 12.24 238.05 13.42 238.05 14.76C238.05 16.1 237.8 17.29 237.31 18.31C236.81 19.34 236.09 20.14 235.14 20.7C234.19 21.27 233.07 21.55 231.78 21.55C230.98 21.55 230.24 21.38 229.56 21.05V21.06ZM233.18 18.29C233.71 17.96 234.12 17.49 234.42 16.88C234.72 16.27 234.86 15.56 234.86 14.76C234.86 13.96 234.71 13.25 234.42 12.64C234.12 12.03 233.71 11.56 233.18 11.23C232.65 10.9 232.03 10.73 231.31 10.73C230.59 10.73 229.97 10.9 229.44 11.23C228.91 11.56 228.49 12.03 228.2 12.64C227.9 13.25 227.76 13.96 227.76 14.76C227.76 15.56 227.91 16.27 228.2 16.88C228.5 17.49 228.91 17.96 229.44 18.29C229.97 18.62 230.59 18.79 231.31 18.79C232.03 18.79 232.65 18.62 233.18 18.29Z"
            fill="#FFFFFF" />
        <path
            d="M252.71 16.96C252.55 17.88 252.19 18.69 251.61 19.39C251.03 20.09 250.31 20.62 249.43 21C248.55 21.37 247.58 21.56 246.52 21.56C245.14 21.56 243.95 21.24 242.93 20.59C241.91 19.95 241.14 19.1 240.6 18.05C240.07 17 239.8 15.89 239.8 14.7C239.8 13.51 240.04 12.39 240.53 11.37C241.02 10.35 241.75 9.53 242.73 8.9C243.71 8.27 244.88 7.96 246.26 7.96C247.64 7.96 248.83 8.26 249.8 8.86C250.77 9.46 251.49 10.25 251.96 11.21C252.43 12.17 252.67 13.21 252.67 14.31C252.67 14.69 252.65 15.06 252.62 15.41H242.9C243.02 16.47 243.41 17.32 244.05 17.95C244.69 18.58 245.52 18.89 246.53 18.89C247.35 18.89 248.02 18.72 248.54 18.39C249.06 18.06 249.41 17.58 249.59 16.95H252.73L252.71 16.96ZM244.06 11.1C243.5 11.59 243.14 12.32 242.96 13.3H249.44C249.39 12.74 249.23 12.23 248.97 11.79C248.71 11.35 248.35 11 247.89 10.74C247.43 10.49 246.88 10.36 246.26 10.36C245.35 10.36 244.62 10.6 244.06 11.09V11.1Z"
            fill="#FFFFFF" />
    </g>
    <defs>
        <clipPath id="clip0_304_548">
            <rect width="252.71" height="26.34" fill="white" transform="translate(0 0.339996)" />
        </clipPath>
    </defs>
</svg>
    